<svg xmlns="http://www.w3.org/2000/svg" width="256" height="256" viewBox="0 0 256 256"><path fill-rule="evenodd" d="M207 50c-21.2-17-50-26.7-79.1-26.7s-57.7 9.5-79.2 26.8S14 92.7 14 119.1a84.6 84.6 0 0 0 18.1 52.2l-20.5 65.3 71.2-30.7a182.3 182.3 0 0 0 43.9 5.6c32 0 61.4-9.7 82.7-27.2s32.5-40.4 32.5-65.2c0-26.5-12.4-51-34.9-69.1zm-80.3 143c-17.4 0-31.4-3-43.9-6.2l-1.5-.4-40 17.3 11.4-36.5-1.6-1.9c-9.7-11.6-18.6-25.2-18.6-46.2 0-42.6 42.8-77.3 95.4-77.3s95.5 34.7 95.5 77.3-41.6 73.9-96.7 73.9z"/><circle cx="173.4" cy="119" r="18.3"/><path fill-rule="evenodd" d="M127.9 137.4a18.4 18.4 0 1 1 18.4-18.4 18.4 18.4 0 0 1-18.4 18.4zm-45.5 0a18.4 18.4 0 1 1 18.3-18.4 18.4 18.4 0 0 1-18.3 18.4z"/></svg>